Coordinates
version=1
nRows=12
nColumns=34
inDegrees=no

Units are S.I. units (second, meters, Newtons, ...)
If the header above contains a line with 'inDegrees', this indicates whether rotational values are in degrees (yes) or radians (no).

endheader
time	pelvis_tilt	pelvis_list	pelvis_rotation	pelvis_tx	pelvis_ty	pelvis_tz	hip_flexion_r	hip_adduction_r	hip_rotation_r	knee_angle_r	ankle_angle_r	subtalar_angle_r	mtp_angle_r	hip_flexion_l	hip_adduction_l	hip_rotation_l	knee_angle_l	ankle_angle_l	subtalar_angle_l	mtp_angle_l	lumbar_extension	lumbar_bending	lumbar_rotation	arm_flex_r	arm_add_r	arm_rot_r	elbow_flex_r	pro_sup_r	arm_flex_l	arm_add_l	arm_rot_l	elbow_flex_l	pro_sup_l
0.45	0.113751	-0.0084327	0.00925075	0.388544	1.04676	-0.262793	-0.27562	0.0455395	-0.202284	0.135012	0.318012	0.154603	-0.0182568	0.355655	-0.0992001	-0.450586	0.279461	0.059298	0.269002	-0.0483336	-0.376084	0.0123312	0.134391	0.185331	-0.267997	-0.0835042	0.741946	2.08384	-0.244075	-0.238645	-0.216599	0.720986	1.98791
0.46	0.111104	-0.00908216	0.00784889	0.401182	1.04378	-0.263282	-0.286964	0.0444598	-0.210933	0.136528	0.331704	0.169059	-0.0183253	0.352868	-0.0926338	-0.482102	0.217191	0.0787781	0.331132	-0.0482579	-0.374016	0.0111663	0.136515	0.189634	-0.269739	-0.0831993	0.749013	2.08264	-0.247594	-0.23622	-0.226752	0.713469	1.98565
0.47	0.108835	-0.00964154	0.00619684	0.413886	1.04077	-0.263824	-0.297384	0.0427235	-0.219352	0.140588	0.345193	0.182546	-0.0183938	0.351097	-0.0863	-0.509365	0.163204	0.0978389	0.392107	-0.0481821	-0.372353	0.00984328	0.138711	0.19363	-0.271128	-0.0834019	0.755738	2.08128	-0.249639	-0.233856	-0.236211	0.704403	1.98631
0.48	0.107116	-0.00996397	0.00431374	0.426668	1.03781	-0.264434	-0.307032	0.04023	-0.227227	0.147226	0.358172	0.194781	-0.0184624	0.350317	-0.0803605	-0.529773	0.119184	0.115426	0.447453	-0.0481063	-0.371272	0.00828879	0.140939	0.19732	-0.272147	-0.0840408	0.762078	2.07977	-0.250227	-0.231637	-0.244835	0.69389	1.98966
0.49	0.106079	-0.00994115	0.00226453	0.439546	1.03495	-0.265124	-0.316155	0.0369121	-0.234288	0.156293	0.370269	0.205571	-0.0185309	0.350353	-0.0750003	-0.541362	0.0864127	0.130552	0.493634	-0.0480305	-0.370899	0.00643226	0.143107	0.200648	-0.272762	-0.0850525	0.767999	2.07813	-0.249459	-0.22963	-0.25251	0.68215	1.99543
0.5	0.105827	-0.00947881	0.000136666	0.452554	1.03224	-0.265903	-0.325058	0.0327263	-0.240319	0.167485	0.381071	0.214813	-0.0185995	0.350915	-0.0703862	-0.543259	0.0655928	0.142379	0.528792	-0.0479547	-0.371276	0.00419623	0.145094	0.203494	-0.272931	-0.0863929	0.773475	2.07639	-0.247514	-0.227893	-0.259135	0.669518	2.00336
0.51	0.106423	-0.00847494	-0.0019794	0.465732	1.02972	-0.266775	-0.334045	0.0276373	-0.245166	0.180397	0.39013	0.222447	-0.018668	0.351639	-0.0665953	-0.53581	0.0567061	0.150245	0.552839	-0.0478788	-0.372359	0.00148771	0.146769	0.205692	-0.272598	-0.0880433	0.778481	2.07461	-0.24463	-0.226468	-0.264608	0.656427	2.01316
0.52	0.107876	-0.00680846	-0.00401369	0.479131	1.02741	-0.267738	-0.343356	0.0215901	-0.248761	0.194608	0.397004	0.228447	-0.0187366	0.352128	-0.0635358	-0.520404	0.0589175	0.153671	0.566989	-0.0478028	-0.374015	-0.00181796	0.14802	0.207042	-0.27171	-0.0900126	0.782979	2.07286	-0.241076	-0.225381	-0.26881	0.643376	2.02451
0.53	0.110152	-0.0043598	-0.0059343	0.492808	1.02534	-0.268785	-0.353111	0.0144886	-0.251134	0.20976	0.401264	0.232784	-0.0188052	0.351997	-0.060913	-0.499134	0.0706074	0.152373	0.573102	-0.0477269	-0.376043	-0.00589176	0.148768	0.207346	-0.27021	-0.0923316	0.786912	2.0712	-0.237117	-0.224641	-0.271601	0.630886	2.03702
0.54	0.11314	-0.00099475	-0.00775932	0.506801	1.02352	-0.269906	-0.363273	0.00620437	-0.252396	0.225645	0.402503	0.235373	-0.0188737	0.350903	-0.0582727	-0.474416	0.0895571	0.146293	0.573067	-0.0476509	-0.378214	-0.0109263	0.148979	0.206436	-0.268049	-0.0950422	0.790191	2.06968	-0.232992	-0.224241	-0.272817	0.619453	2.0502
0.55	0.116676	0.0034092	-0.009554	0.521127	1.02196	-0.271093	-0.373623	-0.00340156	-0.252703	0.242262	0.400313	0.236011	-0.0189423	0.348606	-0.0550926	-0.448638	0.113256	0.135654	0.568364	-0.0475749	-0.380293	-0.0171071	0.148671	0.204206	-0.265188	-0.0981843	0.792695	2.06831	-0.228883	-0.224154	-0.272293	0.609502	2.06345
0.56	0.120558	0.00892872	-0.0114124	0.535777	1.02068	-0.272338	-0.383751	-0.0144395	-0.25222	0.259844	0.394263	0.23433	-0.0190109	0.345004	-0.0508943	-0.423856	0.139262	0.120995	0.559857	-0.0474988	-0.382059	-0.0245696	0.147894	0.200632	-0.261601	-0.101784	0.794278	2.06711	-0.224912	-0.224337	-0.269881	0.601353	2.0761
